<mxfile host="app.diagrams.net" agent="Mozilla/5.0 (Windows NT 10.0; Win64; x64) AppleWebKit/537.36 (KHTML, like Gecko) Chrome/131.0.0.0 Safari/537.36" version="25.0.3">
  <diagram name="หน้า-1" id="Ue4mSd8TyYuP4PDGXQzq">
    <mxGraphModel dx="1034" dy="446" grid="1" gridSize="10" guides="1" tooltips="1" connect="1" arrows="1" fold="1" page="1" pageScale="1" pageWidth="827" pageHeight="1169" math="0" shadow="0">
      <root>
        <mxCell id="0" />
        <mxCell id="1" parent="0" />
        <mxCell id="Mex5-CrC4SJatkL0FC_K-3" value="" style="edgeStyle=orthogonalEdgeStyle;rounded=0;orthogonalLoop=1;jettySize=auto;html=1;" edge="1" parent="1" source="Mex5-CrC4SJatkL0FC_K-1" target="Mex5-CrC4SJatkL0FC_K-2">
          <mxGeometry relative="1" as="geometry" />
        </mxCell>
        <mxCell id="Mex5-CrC4SJatkL0FC_K-1" value="start" style="strokeWidth=2;html=1;shape=mxgraph.flowchart.start_1;whiteSpace=wrap;" vertex="1" parent="1">
          <mxGeometry x="360" y="100" width="100" height="60" as="geometry" />
        </mxCell>
        <mxCell id="Mex5-CrC4SJatkL0FC_K-5" value="" style="edgeStyle=orthogonalEdgeStyle;rounded=0;orthogonalLoop=1;jettySize=auto;html=1;" edge="1" parent="1" source="Mex5-CrC4SJatkL0FC_K-2" target="Mex5-CrC4SJatkL0FC_K-4">
          <mxGeometry relative="1" as="geometry" />
        </mxCell>
        <mxCell id="Mex5-CrC4SJatkL0FC_K-2" value="กำหนดตัวแปร&amp;nbsp;&lt;div&gt;num1, num2&lt;/div&gt;" style="whiteSpace=wrap;html=1;strokeWidth=2;" vertex="1" parent="1">
          <mxGeometry x="350" y="240" width="120" height="60" as="geometry" />
        </mxCell>
        <mxCell id="Mex5-CrC4SJatkL0FC_K-7" value="" style="edgeStyle=orthogonalEdgeStyle;rounded=0;orthogonalLoop=1;jettySize=auto;html=1;" edge="1" parent="1" source="Mex5-CrC4SJatkL0FC_K-4" target="Mex5-CrC4SJatkL0FC_K-6">
          <mxGeometry relative="1" as="geometry" />
        </mxCell>
        <mxCell id="Mex5-CrC4SJatkL0FC_K-4" value="แสดงคำว่า Input1" style="shape=parallelogram;perimeter=parallelogramPerimeter;whiteSpace=wrap;html=1;fixedSize=1;strokeWidth=2;" vertex="1" parent="1">
          <mxGeometry x="350" y="380" width="120" height="60" as="geometry" />
        </mxCell>
        <mxCell id="Mex5-CrC4SJatkL0FC_K-9" value="" style="edgeStyle=orthogonalEdgeStyle;rounded=0;orthogonalLoop=1;jettySize=auto;html=1;" edge="1" parent="1" source="Mex5-CrC4SJatkL0FC_K-6" target="Mex5-CrC4SJatkL0FC_K-8">
          <mxGeometry relative="1" as="geometry" />
        </mxCell>
        <mxCell id="Mex5-CrC4SJatkL0FC_K-6" value="รับค่าจากผู้ใช้" style="shape=parallelogram;perimeter=parallelogramPerimeter;whiteSpace=wrap;html=1;fixedSize=1;strokeWidth=2;" vertex="1" parent="1">
          <mxGeometry x="350" y="520" width="120" height="60" as="geometry" />
        </mxCell>
        <mxCell id="Mex5-CrC4SJatkL0FC_K-11" value="" style="edgeStyle=orthogonalEdgeStyle;rounded=0;orthogonalLoop=1;jettySize=auto;html=1;" edge="1" parent="1" source="Mex5-CrC4SJatkL0FC_K-8" target="Mex5-CrC4SJatkL0FC_K-10">
          <mxGeometry relative="1" as="geometry" />
        </mxCell>
        <mxCell id="Mex5-CrC4SJatkL0FC_K-8" value="แสดงคำว่า Input2" style="shape=parallelogram;perimeter=parallelogramPerimeter;whiteSpace=wrap;html=1;fixedSize=1;strokeWidth=2;" vertex="1" parent="1">
          <mxGeometry x="350" y="660" width="120" height="60" as="geometry" />
        </mxCell>
        <mxCell id="Mex5-CrC4SJatkL0FC_K-13" value="" style="edgeStyle=orthogonalEdgeStyle;rounded=0;orthogonalLoop=1;jettySize=auto;html=1;" edge="1" parent="1" source="Mex5-CrC4SJatkL0FC_K-10" target="Mex5-CrC4SJatkL0FC_K-12">
          <mxGeometry relative="1" as="geometry" />
        </mxCell>
        <mxCell id="Mex5-CrC4SJatkL0FC_K-10" value="รับค่าจากผู้ใช้" style="shape=parallelogram;perimeter=parallelogramPerimeter;whiteSpace=wrap;html=1;fixedSize=1;strokeWidth=2;" vertex="1" parent="1">
          <mxGeometry x="350" y="800" width="120" height="60" as="geometry" />
        </mxCell>
        <mxCell id="Mex5-CrC4SJatkL0FC_K-15" value="" style="edgeStyle=orthogonalEdgeStyle;rounded=0;orthogonalLoop=1;jettySize=auto;html=1;" edge="1" parent="1" source="Mex5-CrC4SJatkL0FC_K-12" target="Mex5-CrC4SJatkL0FC_K-14">
          <mxGeometry relative="1" as="geometry" />
        </mxCell>
        <mxCell id="Mex5-CrC4SJatkL0FC_K-17" value="" style="edgeStyle=orthogonalEdgeStyle;rounded=0;orthogonalLoop=1;jettySize=auto;html=1;" edge="1" parent="1" source="Mex5-CrC4SJatkL0FC_K-12" target="Mex5-CrC4SJatkL0FC_K-16">
          <mxGeometry relative="1" as="geometry" />
        </mxCell>
        <mxCell id="Mex5-CrC4SJatkL0FC_K-12" value="num1 &amp;lt; num2 ?" style="rhombus;whiteSpace=wrap;html=1;strokeWidth=2;" vertex="1" parent="1">
          <mxGeometry x="355" y="930" width="110" height="100" as="geometry" />
        </mxCell>
        <mxCell id="Mex5-CrC4SJatkL0FC_K-26" style="edgeStyle=orthogonalEdgeStyle;rounded=0;orthogonalLoop=1;jettySize=auto;html=1;exitX=1;exitY=0.5;exitDx=0;exitDy=0;entryX=0.95;entryY=0.75;entryDx=0;entryDy=0;entryPerimeter=0;" edge="1" parent="1" source="Mex5-CrC4SJatkL0FC_K-14" target="Mex5-CrC4SJatkL0FC_K-29">
          <mxGeometry relative="1" as="geometry">
            <mxPoint x="780" y="1410" as="targetPoint" />
            <Array as="points">
              <mxPoint x="800" y="980" />
              <mxPoint x="800" y="1420" />
            </Array>
          </mxGeometry>
        </mxCell>
        <mxCell id="Mex5-CrC4SJatkL0FC_K-14" value="แสดงคำว่า&amp;nbsp;&lt;div&gt;Number1 lower than Number2&lt;/div&gt;" style="shape=parallelogram;perimeter=parallelogramPerimeter;whiteSpace=wrap;html=1;fixedSize=1;strokeWidth=2;" vertex="1" parent="1">
          <mxGeometry x="550" y="945" width="210" height="70" as="geometry" />
        </mxCell>
        <mxCell id="Mex5-CrC4SJatkL0FC_K-19" value="" style="edgeStyle=orthogonalEdgeStyle;rounded=0;orthogonalLoop=1;jettySize=auto;html=1;" edge="1" parent="1" source="Mex5-CrC4SJatkL0FC_K-16" target="Mex5-CrC4SJatkL0FC_K-18">
          <mxGeometry relative="1" as="geometry" />
        </mxCell>
        <mxCell id="Mex5-CrC4SJatkL0FC_K-23" value="" style="edgeStyle=orthogonalEdgeStyle;rounded=0;orthogonalLoop=1;jettySize=auto;html=1;" edge="1" parent="1" source="Mex5-CrC4SJatkL0FC_K-16" target="Mex5-CrC4SJatkL0FC_K-22">
          <mxGeometry relative="1" as="geometry" />
        </mxCell>
        <mxCell id="Mex5-CrC4SJatkL0FC_K-16" value="num1 &amp;gt; num2 ?" style="rhombus;whiteSpace=wrap;html=1;strokeWidth=2;" vertex="1" parent="1">
          <mxGeometry x="355" y="1110" width="110" height="100" as="geometry" />
        </mxCell>
        <mxCell id="Mex5-CrC4SJatkL0FC_K-18" value="แสดงคำว่า&amp;nbsp;&lt;div&gt;Number1 greater than Number2&lt;/div&gt;" style="shape=parallelogram;perimeter=parallelogramPerimeter;whiteSpace=wrap;html=1;fixedSize=1;strokeWidth=2;" vertex="1" parent="1">
          <mxGeometry x="540" y="1125" width="210" height="70" as="geometry" />
        </mxCell>
        <mxCell id="Mex5-CrC4SJatkL0FC_K-25" value="" style="edgeStyle=orthogonalEdgeStyle;rounded=0;orthogonalLoop=1;jettySize=auto;html=1;" edge="1" parent="1" source="Mex5-CrC4SJatkL0FC_K-22" target="Mex5-CrC4SJatkL0FC_K-24">
          <mxGeometry relative="1" as="geometry" />
        </mxCell>
        <mxCell id="Mex5-CrC4SJatkL0FC_K-22" value="&lt;div&gt;แสดงคำว่า&lt;/div&gt;Number1 equal Number2" style="shape=parallelogram;perimeter=parallelogramPerimeter;whiteSpace=wrap;html=1;fixedSize=1;strokeWidth=2;" vertex="1" parent="1">
          <mxGeometry x="315" y="1310" width="190" height="60" as="geometry" />
        </mxCell>
        <mxCell id="Mex5-CrC4SJatkL0FC_K-24" value="end" style="strokeWidth=2;html=1;shape=mxgraph.flowchart.start_1;whiteSpace=wrap;" vertex="1" parent="1">
          <mxGeometry x="360" y="1460" width="100" height="60" as="geometry" />
        </mxCell>
        <mxCell id="Mex5-CrC4SJatkL0FC_K-29" value="" style="shape=waypoint;sketch=0;fillStyle=solid;size=6;pointerEvents=1;points=[];fillColor=none;resizable=0;rotatable=0;perimeter=centerPerimeter;snapToPoint=1;" vertex="1" parent="1">
          <mxGeometry x="400" y="1410" width="20" height="20" as="geometry" />
        </mxCell>
        <mxCell id="Mex5-CrC4SJatkL0FC_K-30" value="" style="shape=waypoint;sketch=0;fillStyle=solid;size=6;pointerEvents=1;points=[];fillColor=none;resizable=0;rotatable=0;perimeter=centerPerimeter;snapToPoint=1;" vertex="1" parent="1">
          <mxGeometry x="790" y="1150" width="20" height="20" as="geometry" />
        </mxCell>
        <mxCell id="Mex5-CrC4SJatkL0FC_K-31" style="edgeStyle=orthogonalEdgeStyle;rounded=0;orthogonalLoop=1;jettySize=auto;html=1;exitX=1;exitY=0.5;exitDx=0;exitDy=0;entryX=0.1;entryY=0.6;entryDx=0;entryDy=0;entryPerimeter=0;" edge="1" parent="1" source="Mex5-CrC4SJatkL0FC_K-18" target="Mex5-CrC4SJatkL0FC_K-30">
          <mxGeometry relative="1" as="geometry" />
        </mxCell>
        <mxCell id="Mex5-CrC4SJatkL0FC_K-32" value="T" style="text;html=1;align=center;verticalAlign=middle;whiteSpace=wrap;rounded=0;" vertex="1" parent="1">
          <mxGeometry x="465" y="940" width="60" height="30" as="geometry" />
        </mxCell>
        <mxCell id="Mex5-CrC4SJatkL0FC_K-33" value="T" style="text;html=1;align=center;verticalAlign=middle;whiteSpace=wrap;rounded=0;" vertex="1" parent="1">
          <mxGeometry x="465" y="1120" width="60" height="30" as="geometry" />
        </mxCell>
        <mxCell id="Mex5-CrC4SJatkL0FC_K-34" value="F&lt;span style=&quot;color: rgba(0, 0, 0, 0); font-family: monospace; font-size: 0px; text-align: start; text-wrap-mode: nowrap;&quot;&gt;%3CmxGraphModel%3E%3Croot%3E%3CmxCell%20id%3D%220%22%2F%3E%3CmxCell%20id%3D%221%22%20parent%3D%220%22%2F%3E%3CmxCell%20id%3D%222%22%20value%3D%22T%22%20style%3D%22text%3Bhtml%3D1%3Balign%3Dcenter%3BverticalAlign%3Dmiddle%3BwhiteSpace%3Dwrap%3Brounded%3D0%3B%22%20vertex%3D%221%22%20parent%3D%221%22%3E%3CmxGeometry%20x%3D%22465%22%20y%3D%221120%22%20width%3D%2260%22%20height%3D%2230%22%20as%3D%22geometry%22%2F%3E%3C%2FmxCell%3E%3C%2Froot%3E%3C%2FmxGraphModel%3E&lt;/span&gt;" style="text;html=1;align=center;verticalAlign=middle;whiteSpace=wrap;rounded=0;" vertex="1" parent="1">
          <mxGeometry x="340" y="1210" width="60" height="30" as="geometry" />
        </mxCell>
        <mxCell id="Mex5-CrC4SJatkL0FC_K-35" value="F&lt;span style=&quot;color: rgba(0, 0, 0, 0); font-family: monospace; font-size: 0px; text-align: start; text-wrap-mode: nowrap;&quot;&gt;%3CmxGraphModel%3E%3Croot%3E%3CmxCell%20id%3D%220%22%2F%3E%3CmxCell%20id%3D%221%22%20parent%3D%220%22%2F%3E%3CmxCell%20id%3D%222%22%20value%3D%22T%22%20style%3D%22text%3Bhtml%3D1%3Balign%3Dcenter%3BverticalAlign%3Dmiddle%3BwhiteSpace%3Dwrap%3Brounded%3D0%3B%22%20vertex%3D%221%22%20parent%3D%221%22%3E%3CmxGeometry%20x%3D%22465%22%20y%3D%221120%22%20width%3D%2260%22%20height%3D%2230%22%20as%3D%22geometry%22%2F%3E%3C%2FmxCell%3E%3C%2Froot%3E%3C%2FmxGraphModel%3E&lt;/span&gt;" style="text;html=1;align=center;verticalAlign=middle;whiteSpace=wrap;rounded=0;" vertex="1" parent="1">
          <mxGeometry x="340" y="1030" width="60" height="30" as="geometry" />
        </mxCell>
      </root>
    </mxGraphModel>
  </diagram>
</mxfile>
